<svg width="214" height="44" viewBox="0 0 214 44" fill="none" xmlns="http://www.w3.org/2000/svg">
<rect x="1" y="1" width="212" height="42" rx="5" stroke="black" stroke-width="2"/>
<path d="M28.5222 32.7992C27.7111 32.7992 27.7111 34 28.5222 34H43.3834C43.724 34 44 33.731 44 33.3995V15.3201C44 15.1543 43.931 15.004 43.8196 14.8955L38.9711 10.1759C38.8507 10.0587 38.693 10 38.5352 10H24.5875C24.247 10 23.9706 10.269 23.9706 10.6005V21.1092C23.9706 21.8991 25.2041 21.8991 25.2041 21.1092V11.2008H38.2798L42.7665 15.5687V32.7992H28.5222ZM39.0141 27.5071C39.8255 27.5071 39.8255 26.3063 39.0141 26.3063H29.8528C29.0414 26.3063 29.0414 27.5071 29.8528 27.5071H39.0141ZM39.0141 19.5191C39.8255 19.5191 39.8255 18.3183 39.0141 18.3183H29.8528C29.0414 18.3183 29.0414 19.5191 29.8528 19.5191H39.0141ZM39.0141 22.1818C39.8255 22.1818 39.8255 20.981 39.0141 20.981H29.8528C29.0414 20.981 29.0414 22.1818 29.8528 22.1818H39.0141ZM39.0141 24.8444C39.8255 24.8444 39.8255 23.6437 39.0141 23.6437H29.8528C29.0414 23.6437 29.0414 24.8444 29.8528 24.8444H39.0141ZM39.0141 16.8564C39.8255 16.8564 39.8255 15.6557 39.0141 15.6557H29.8528C29.0414 15.6557 29.0414 16.8564 29.8528 16.8564H39.0141ZM24.1798 23.785C22.6909 23.785 21.484 24.9599 21.484 26.4093C21.484 26.9356 21.6432 27.4257 21.9171 27.8363C20.7948 28.5613 20.0808 29.7579 20.0013 31.0701C19.9538 31.857 21.1828 31.9271 21.23 31.1405C21.2931 30.1026 21.9055 29.1781 22.8471 28.6907C23.2402 28.9088 23.6949 29.0333 24.1798 29.0333C24.7043 29.0333 25.194 28.8876 25.608 28.6351C26.607 29.1039 27.269 30.0613 27.3344 31.1405C27.3819 31.9271 28.6106 31.857 28.5631 31.0701C28.4798 29.698 27.7042 28.4563 26.4994 27.7467C26.7381 27.355 26.8753 26.8978 26.8753 26.4093C26.8753 24.9602 25.6684 23.785 24.1798 23.785ZM24.1798 24.9858C24.9872 24.9858 25.6418 25.6232 25.6418 26.4093C25.6418 27.1953 24.9872 27.8325 24.1798 27.8325C23.3723 27.8325 22.7174 27.1953 22.7174 26.4093C22.7174 25.6232 23.372 24.9858 24.1798 24.9858Z" fill="black"/>
<path d="M63.8125 24.4453H66.7422C66.6484 25.5625 66.3359 26.5586 65.8047 27.4336C65.2734 28.3008 64.5273 28.9844 63.5664 29.4844C62.6055 29.9844 61.4375 30.2344 60.0625 30.2344C59.0078 30.2344 58.0586 30.0469 57.2148 29.6719C56.3711 29.2891 55.6484 28.75 55.0469 28.0547C54.4453 27.3516 53.9844 26.5039 53.6641 25.5117C53.3516 24.5195 53.1953 23.4102 53.1953 22.1836V20.7656C53.1953 19.5391 53.3555 18.4297 53.6758 17.4375C54.0039 16.4453 54.4727 15.5977 55.082 14.8945C55.6914 14.1836 56.4219 13.6406 57.2734 13.2656C58.1328 12.8906 59.0977 12.7031 60.168 12.7031C61.5273 12.7031 62.6758 12.9531 63.6133 13.4531C64.5508 13.9531 65.2773 14.6445 65.793 15.5273C66.3164 16.4102 66.6367 17.4219 66.7539 18.5625H63.8242C63.7461 17.8281 63.5742 17.1992 63.3086 16.6758C63.0508 16.1523 62.668 15.7539 62.1602 15.4805C61.6523 15.1992 60.9883 15.0586 60.168 15.0586C59.4961 15.0586 58.9102 15.1836 58.4102 15.4336C57.9102 15.6836 57.4922 16.0508 57.1562 16.5352C56.8203 17.0195 56.5664 17.6172 56.3945 18.3281C56.2305 19.0312 56.1484 19.8359 56.1484 20.7422V22.1836C56.1484 23.043 56.2227 23.8242 56.3711 24.5273C56.5273 25.2227 56.7617 25.8203 57.0742 26.3203C57.3945 26.8203 57.8008 27.207 58.293 27.4805C58.7852 27.7539 59.375 27.8906 60.0625 27.8906C60.8984 27.8906 61.5742 27.7578 62.0898 27.4922C62.6133 27.2266 63.0078 26.8398 63.2734 26.332C63.5469 25.8164 63.7266 25.1875 63.8125 24.4453ZM75.2617 26.8828L79.75 12.9375H82.9961L76.8789 30H74.6875L75.2617 26.8828ZM71.1133 12.9375L75.5664 26.8828L76.1758 30H73.9727L67.8789 12.9375H71.1133ZM98.7227 17.3203H101.289V29.6484C101.289 30.7891 101.047 31.7578 100.562 32.5547C100.078 33.3516 99.4023 33.957 98.5352 34.3711C97.668 34.793 96.6641 35.0039 95.5234 35.0039C95.0391 35.0039 94.5 34.9336 93.9062 34.793C93.3203 34.6523 92.75 34.4258 92.1953 34.1133C91.6484 33.8086 91.1914 33.4062 90.8242 32.9062L92.1484 31.2422C92.6016 31.7812 93.1016 32.1758 93.6484 32.4258C94.1953 32.6758 94.7695 32.8008 95.3711 32.8008C96.0195 32.8008 96.5703 32.6797 97.0234 32.4375C97.4844 32.2031 97.8398 31.8555 98.0898 31.3945C98.3398 30.9336 98.4648 30.3711 98.4648 29.707V20.1914L98.7227 17.3203ZM90.1094 23.8008V23.5547C90.1094 22.5938 90.2266 21.7188 90.4609 20.9297C90.6953 20.1328 91.0312 19.4492 91.4688 18.8789C91.9062 18.3008 92.4375 17.8594 93.0625 17.5547C93.6875 17.2422 94.3945 17.0859 95.1836 17.0859C96.0039 17.0859 96.7031 17.2344 97.2812 17.5312C97.8672 17.8281 98.3555 18.2539 98.7461 18.8086C99.1367 19.3555 99.4414 20.0117 99.6602 20.7773C99.8867 21.5352 100.055 22.3789 100.164 23.3086V24.0938C100.062 25 99.8906 25.8281 99.6484 26.5781C99.4062 27.3281 99.0859 27.9766 98.6875 28.5234C98.2891 29.0703 97.7969 29.4922 97.2109 29.7891C96.6328 30.0859 95.9492 30.2344 95.1602 30.2344C94.3867 30.2344 93.6875 30.0742 93.0625 29.7539C92.4453 29.4336 91.9141 28.9844 91.4688 28.4062C91.0312 27.8281 90.6953 27.1484 90.4609 26.3672C90.2266 25.5781 90.1094 24.7227 90.1094 23.8008ZM92.9336 23.5547V23.8008C92.9336 24.3789 92.9883 24.918 93.0977 25.418C93.2148 25.918 93.3906 26.3594 93.625 26.7422C93.8672 27.1172 94.1719 27.4141 94.5391 27.6328C94.9141 27.8438 95.3555 27.9492 95.8633 27.9492C96.5273 27.9492 97.0703 27.8086 97.4922 27.5273C97.9219 27.2461 98.25 26.8672 98.4766 26.3906C98.7109 25.9062 98.875 25.3672 98.9688 24.7734V22.6523C98.9219 22.1914 98.8242 21.7617 98.6758 21.3633C98.5352 20.9648 98.3438 20.6172 98.1016 20.3203C97.8594 20.0156 97.5547 19.7812 97.1875 19.6172C96.8203 19.4453 96.3867 19.3594 95.8867 19.3594C95.3789 19.3594 94.9375 19.4688 94.5625 19.6875C94.1875 19.9062 93.8789 20.207 93.6367 20.5898C93.4023 20.9727 93.2266 21.418 93.1094 21.9258C92.9922 22.4336 92.9336 22.9766 92.9336 23.5547ZM109.809 30.2344C108.871 30.2344 108.023 30.082 107.266 29.7773C106.516 29.4648 105.875 29.0312 105.344 28.4766C104.82 27.9219 104.418 27.2695 104.137 26.5195C103.855 25.7695 103.715 24.9609 103.715 24.0938V23.625C103.715 22.6328 103.859 21.7344 104.148 20.9297C104.438 20.125 104.84 19.4375 105.355 18.8672C105.871 18.2891 106.48 17.8477 107.184 17.543C107.887 17.2383 108.648 17.0859 109.469 17.0859C110.375 17.0859 111.168 17.2383 111.848 17.543C112.527 17.8477 113.09 18.2773 113.535 18.832C113.988 19.3789 114.324 20.0312 114.543 20.7891C114.77 21.5469 114.883 22.3828 114.883 23.2969V24.5039H105.086V22.4766H112.094V22.2539C112.078 21.7461 111.977 21.2695 111.789 20.8242C111.609 20.3789 111.332 20.0195 110.957 19.7461C110.582 19.4727 110.082 19.3359 109.457 19.3359C108.988 19.3359 108.57 19.4375 108.203 19.6406C107.844 19.8359 107.543 20.1211 107.301 20.4961C107.059 20.8711 106.871 21.3242 106.738 21.8555C106.613 22.3789 106.551 22.9688 106.551 23.625V24.0938C106.551 24.6484 106.625 25.1641 106.773 25.6406C106.93 26.1094 107.156 26.5195 107.453 26.8711C107.75 27.2227 108.109 27.5 108.531 27.7031C108.953 27.8984 109.434 27.9961 109.973 27.9961C110.652 27.9961 111.258 27.8594 111.789 27.5859C112.32 27.3125 112.781 26.9258 113.172 26.4258L114.66 27.8672C114.387 28.2656 114.031 28.6484 113.594 29.0156C113.156 29.375 112.621 29.668 111.988 29.8945C111.363 30.1211 110.637 30.2344 109.809 30.2344ZM119.887 20.0273V30H117.062V17.3203H119.723L119.887 20.0273ZM119.383 23.1914L118.469 23.1797C118.477 22.2812 118.602 21.457 118.844 20.707C119.094 19.957 119.438 19.3125 119.875 18.7734C120.32 18.2344 120.852 17.8203 121.469 17.5312C122.086 17.2344 122.773 17.0859 123.531 17.0859C124.141 17.0859 124.691 17.1719 125.184 17.3438C125.684 17.5078 126.109 17.7773 126.461 18.1523C126.82 18.5273 127.094 19.0156 127.281 19.6172C127.469 20.2109 127.562 20.9414 127.562 21.8086V30H124.727V21.7969C124.727 21.1875 124.637 20.707 124.457 20.3555C124.285 19.9961 124.031 19.7422 123.695 19.5938C123.367 19.4375 122.957 19.3594 122.465 19.3594C121.98 19.3594 121.547 19.4609 121.164 19.6641C120.781 19.8672 120.457 20.1445 120.191 20.4961C119.934 20.8477 119.734 21.2539 119.594 21.7148C119.453 22.1758 119.383 22.668 119.383 23.1914ZM136.035 30.2344C135.098 30.2344 134.25 30.082 133.492 29.7773C132.742 29.4648 132.102 29.0312 131.57 28.4766C131.047 27.9219 130.645 27.2695 130.363 26.5195C130.082 25.7695 129.941 24.9609 129.941 24.0938V23.625C129.941 22.6328 130.086 21.7344 130.375 20.9297C130.664 20.125 131.066 19.4375 131.582 18.8672C132.098 18.2891 132.707 17.8477 133.41 17.543C134.113 17.2383 134.875 17.0859 135.695 17.0859C136.602 17.0859 137.395 17.2383 138.074 17.543C138.754 17.8477 139.316 18.2773 139.762 18.832C140.215 19.3789 140.551 20.0312 140.77 20.7891C140.996 21.5469 141.109 22.3828 141.109 23.2969V24.5039H131.312V22.4766H138.32V22.2539C138.305 21.7461 138.203 21.2695 138.016 20.8242C137.836 20.3789 137.559 20.0195 137.184 19.7461C136.809 19.4727 136.309 19.3359 135.684 19.3359C135.215 19.3359 134.797 19.4375 134.43 19.6406C134.07 19.8359 133.77 20.1211 133.527 20.4961C133.285 20.8711 133.098 21.3242 132.965 21.8555C132.84 22.3789 132.777 22.9688 132.777 23.625V24.0938C132.777 24.6484 132.852 25.1641 133 25.6406C133.156 26.1094 133.383 26.5195 133.68 26.8711C133.977 27.2227 134.336 27.5 134.758 27.7031C135.18 27.8984 135.66 27.9961 136.199 27.9961C136.879 27.9961 137.484 27.8594 138.016 27.5859C138.547 27.3125 139.008 26.9258 139.398 26.4258L140.887 27.8672C140.613 28.2656 140.258 28.6484 139.82 29.0156C139.383 29.375 138.848 29.668 138.215 29.8945C137.59 30.1211 136.863 30.2344 136.035 30.2344ZM146.148 19.7344V30H143.324V17.3203H146.02L146.148 19.7344ZM150.027 17.2383L150.004 19.8633C149.832 19.832 149.645 19.8086 149.441 19.793C149.246 19.7773 149.051 19.7695 148.855 19.7695C148.371 19.7695 147.945 19.8398 147.578 19.9805C147.211 20.1133 146.902 20.3086 146.652 20.5664C146.41 20.8164 146.223 21.1211 146.09 21.4805C145.957 21.8398 145.879 22.2422 145.855 22.6875L145.211 22.7344C145.211 21.9375 145.289 21.1992 145.445 20.5195C145.602 19.8398 145.836 19.2422 146.148 18.7266C146.469 18.2109 146.867 17.8086 147.344 17.5195C147.828 17.2305 148.387 17.0859 149.02 17.0859C149.191 17.0859 149.375 17.1016 149.57 17.1328C149.773 17.1641 149.926 17.1992 150.027 17.2383ZM158.523 27.457V21.4102C158.523 20.957 158.441 20.5664 158.277 20.2383C158.113 19.9102 157.863 19.6562 157.527 19.4766C157.199 19.2969 156.785 19.207 156.285 19.207C155.824 19.207 155.426 19.2852 155.09 19.4414C154.754 19.5977 154.492 19.8086 154.305 20.0742C154.117 20.3398 154.023 20.6406 154.023 20.9766H151.211C151.211 20.4766 151.332 19.9922 151.574 19.5234C151.816 19.0547 152.168 18.6367 152.629 18.2695C153.09 17.9023 153.641 17.6133 154.281 17.4023C154.922 17.1914 155.641 17.0859 156.438 17.0859C157.391 17.0859 158.234 17.2461 158.969 17.5664C159.711 17.8867 160.293 18.3711 160.715 19.0195C161.145 19.6602 161.359 20.4648 161.359 21.4336V27.0703C161.359 27.6484 161.398 28.168 161.477 28.6289C161.562 29.082 161.684 29.4766 161.84 29.8125V30H158.945C158.812 29.6953 158.707 29.3086 158.629 28.8398C158.559 28.3633 158.523 27.9023 158.523 27.457ZM158.934 22.2891L158.957 24.0352H156.93C156.406 24.0352 155.945 24.0859 155.547 24.1875C155.148 24.2812 154.816 24.4219 154.551 24.6094C154.285 24.7969 154.086 25.0234 153.953 25.2891C153.82 25.5547 153.754 25.8555 153.754 26.1914C153.754 26.5273 153.832 26.8359 153.988 27.1172C154.145 27.3906 154.371 27.6055 154.668 27.7617C154.973 27.918 155.34 27.9961 155.77 27.9961C156.348 27.9961 156.852 27.8789 157.281 27.6445C157.719 27.4023 158.062 27.1094 158.312 26.7656C158.562 26.4141 158.695 26.082 158.711 25.7695L159.625 27.0234C159.531 27.3438 159.371 27.6875 159.145 28.0547C158.918 28.4219 158.621 28.7734 158.254 29.1094C157.895 29.4375 157.461 29.707 156.953 29.918C156.453 30.1289 155.875 30.2344 155.219 30.2344C154.391 30.2344 153.652 30.0703 153.004 29.7422C152.355 29.4062 151.848 28.957 151.48 28.3945C151.113 27.8242 150.93 27.1797 150.93 26.4609C150.93 25.7891 151.055 25.1953 151.305 24.6797C151.562 24.1562 151.938 23.7188 152.43 23.3672C152.93 23.0156 153.539 22.75 154.258 22.5703C154.977 22.3828 155.797 22.2891 156.719 22.2891H158.934ZM170.125 17.3203V19.3828H162.977V17.3203H170.125ZM165.039 14.2148H167.863V26.4961C167.863 26.8867 167.918 27.1875 168.027 27.3984C168.145 27.6016 168.305 27.7383 168.508 27.8086C168.711 27.8789 168.949 27.9141 169.223 27.9141C169.418 27.9141 169.605 27.9023 169.785 27.8789C169.965 27.8555 170.109 27.832 170.219 27.8086L170.23 29.9648C169.996 30.0352 169.723 30.0977 169.41 30.1523C169.105 30.207 168.754 30.2344 168.355 30.2344C167.707 30.2344 167.133 30.1211 166.633 29.8945C166.133 29.6602 165.742 29.2812 165.461 28.7578C165.18 28.2344 165.039 27.5391 165.039 26.6719V14.2148ZM171.484 23.8008V23.5312C171.484 22.6172 171.617 21.7695 171.883 20.9883C172.148 20.1992 172.531 19.5156 173.031 18.9375C173.539 18.3516 174.156 17.8984 174.883 17.5781C175.617 17.25 176.445 17.0859 177.367 17.0859C178.297 17.0859 179.125 17.25 179.852 17.5781C180.586 17.8984 181.207 18.3516 181.715 18.9375C182.223 19.5156 182.609 20.1992 182.875 20.9883C183.141 21.7695 183.273 22.6172 183.273 23.5312V23.8008C183.273 24.7148 183.141 25.5625 182.875 26.3438C182.609 27.125 182.223 27.8086 181.715 28.3945C181.207 28.9727 180.59 29.4258 179.863 29.7539C179.137 30.0742 178.312 30.2344 177.391 30.2344C176.461 30.2344 175.629 30.0742 174.895 29.7539C174.168 29.4258 173.551 28.9727 173.043 28.3945C172.535 27.8086 172.148 27.125 171.883 26.3438C171.617 25.5625 171.484 24.7148 171.484 23.8008ZM174.309 23.5312V23.8008C174.309 24.3711 174.367 24.9102 174.484 25.418C174.602 25.9258 174.785 26.3711 175.035 26.7539C175.285 27.1367 175.605 27.4375 175.996 27.6562C176.387 27.875 176.852 27.9844 177.391 27.9844C177.914 27.9844 178.367 27.875 178.75 27.6562C179.141 27.4375 179.461 27.1367 179.711 26.7539C179.961 26.3711 180.145 25.9258 180.262 25.418C180.387 24.9102 180.449 24.3711 180.449 23.8008V23.5312C180.449 22.9688 180.387 22.4375 180.262 21.9375C180.145 21.4297 179.957 20.9805 179.699 20.5898C179.449 20.1992 179.129 19.8945 178.738 19.6758C178.355 19.4492 177.898 19.3359 177.367 19.3359C176.836 19.3359 176.375 19.4492 175.984 19.6758C175.602 19.8945 175.285 20.1992 175.035 20.5898C174.785 20.9805 174.602 21.4297 174.484 21.9375C174.367 22.4375 174.309 22.9688 174.309 23.5312ZM188.477 19.7344V30H185.652V17.3203H188.348L188.477 19.7344ZM192.355 17.2383L192.332 19.8633C192.16 19.832 191.973 19.8086 191.77 19.793C191.574 19.7773 191.379 19.7695 191.184 19.7695C190.699 19.7695 190.273 19.8398 189.906 19.9805C189.539 20.1133 189.23 20.3086 188.98 20.5664C188.738 20.8164 188.551 21.1211 188.418 21.4805C188.285 21.8398 188.207 22.2422 188.184 22.6875L187.539 22.7344C187.539 21.9375 187.617 21.1992 187.773 20.5195C187.93 19.8398 188.164 19.2422 188.477 18.7266C188.797 18.2109 189.195 17.8086 189.672 17.5195C190.156 17.2305 190.715 17.0859 191.348 17.0859C191.52 17.0859 191.703 17.1016 191.898 17.1328C192.102 17.1641 192.254 17.1992 192.355 17.2383Z" fill="black"/>
</svg>
